USFL
nRows=150
nColumns=2
inDegrees=yes
endheader
time	soleus_r	
2.93448	 49.203310	
3.00605	 49.071866	
3.07762	 49.082169	
3.14919	 49.090762	
3.22077	 49.028256	
3.29234	 49.115531	
3.36391	 48.871519	
3.43548	 48.951533	
3.50706	 48.934766	
3.57863	 49.048899	
3.6502	 48.878368	
3.72177	 48.922035	
3.79335	 49.023996	
3.86492	 48.957587	
3.93649	 48.833551	
4.00806	 48.785815	
4.07964	 49.088099	
4.15121	 48.852085	
4.22278	 48.752742	
4.29435	 48.898745	
4.36593	 48.774923	
4.4375	 48.664687	
4.50907	 48.737281	
4.58065	 48.834141	
4.65222	 48.620934	
4.72379	 48.524805	
4.79536	 48.626263	
4.86694	 48.559977	
4.93851	 48.587335	
5.01008	 48.617068	
5.08165	 48.520424	
5.15323	 48.539225	
5.2248	 48.630760	
5.29637	 48.709376	
5.36794	 48.754231	
5.43952	 48.646199	
5.51109	 47.791733	
5.58266	 48.330783	
5.65423	 38.086134	
5.72581	 37.698254	
5.79738	 36.639219	
5.86895	 36.645890	
5.94052	 37.050192	
6.0121	 37.194504	
6.08367	 37.615703	
6.15524	 32.953648	
6.22681	 33.305219	
6.29839	 33.670438	
6.36996	 33.785241	
6.44153	 35.068861	
6.5131	 31.467810	
6.58468	 31.684393	
6.65625	 31.141598	
6.72782	 31.178136	
6.7994	 31.061885	
6.87097	 31.025262	
6.94254	 30.729387	
7.01411	 30.771847	
7.08569	 31.039243	
7.15726	 30.357742	
7.22883	 30.418760	
7.3004	 30.357388	
7.37198	 30.364639	
7.44355	 30.235238	
7.51512	 30.900927	
7.58669	 30.456134	
7.65827	 30.722937	
7.72984	 30.468451	
7.80141	 31.122063	
7.87298	 30.839528	
7.94456	 30.729490	
8.01613	 30.684584	
8.0877	 30.862130	
8.15927	 30.141663	
8.23085	 30.266060	
8.30242	 29.996072	
8.37399	 30.055039	
8.44556	 30.156517	
8.51714	 29.778851	
8.58871	 29.866906	
8.66028	 29.484227	
8.73185	 29.389018	
8.80343	 30.087865	
8.875	 30.219218	
8.94657	 30.267802	
9.01815	 30.407675	
9.08972	 30.121924	
9.16129	 30.497691	
9.23286	 30.503183	
9.30444	 30.046429	
9.37601	 29.372509	
9.44758	 29.380022	
9.51915	 28.820132	
9.59073	 29.147582	
9.6623	 29.361346	
9.73387	 29.666673	
9.80544	 30.191411	
9.87702	 30.161845	
9.94859	 29.739662	
10.0202	 29.049932	
10.0917	 28.792738	
10.1633	 28.933108	
10.2349	 28.566718	
10.3065	 28.287335	
10.378	 28.641021	
10.4496	 29.270051	
10.5212	 28.856609	
10.5927	 29.775747	
10.6643	 29.829093	
10.7359	 30.308050	
10.8075	 30.091793	
10.879	 30.402372	
10.9506	 30.620575	
11.0222	 30.086334	
11.0937	 30.061110	
11.1653	 29.441117	
11.2369	 28.947572	
11.3085	 28.657732	
11.38	 32.347304	
11.4516	 36.297890	
11.5232	 35.644973	
11.5948	 41.957768	
11.6663	 41.102241	
11.7379	 41.230803	
11.8095	 41.488699	
11.881	 40.521165	
11.9526	 40.333402	
12.0242	 40.444856	
12.0958	 40.283964	
12.1673	 40.520481	
12.2389	 40.887269	
12.3105	 41.033008	
12.3821	 41.509944	
12.4536	 41.663869	
12.5252	 41.635776	
12.5968	 41.670893	
12.6683	 41.922824	
12.7399	 41.552259	
12.8115	 41.500748	
12.8831	 41.602229	
12.9546	 41.589327	
13.0262	 41.750141	
13.0978	 41.702911	
13.1694	 41.705032	
13.2409	 41.822510	
13.3125	 41.501372	
13.3841	 42.167860	
13.4556	 42.144079	
13.5272	 42.637606	
13.5988	 42.180592	
